<svg width="24" height="25" viewBox="0 0 24 25" fill="none" xmlns="http://www.w3.org/2000/svg">
<g clip-path="url(#clip0_47_1644)">
<path fill-rule="evenodd" clip-rule="evenodd" d="M24 12.0952C24 18.7226 18.6274 24.0952 12 24.0952C5.37258 24.0952 0 18.7226 0 12.0952C0 5.4678 5.37258 0.0952148 12 0.0952148C18.6274 0.0952148 24 5.4678 24 12.0952ZM12.43 8.95414C11.2628 9.43961 8.93014 10.4444 5.43189 11.9685C4.86383 12.1944 4.56626 12.4154 4.53917 12.6315C4.49339 12.9967 4.95071 13.1405 5.57348 13.3363C5.65819 13.363 5.74596 13.3906 5.83594 13.4198C6.44864 13.619 7.27283 13.852 7.70129 13.8612C8.08994 13.8696 8.52373 13.7094 9.00264 13.3806C12.2712 11.1742 13.9584 10.059 14.0643 10.035C14.139 10.018 14.2426 9.9967 14.3128 10.0591C14.3829 10.1214 14.376 10.2395 14.3686 10.2712C14.3233 10.4644 12.5281 12.1333 11.5991 12.997C11.3095 13.2662 11.1041 13.4572 11.0621 13.5009C10.968 13.5986 10.8721 13.691 10.78 13.7798C10.2108 14.3285 9.78391 14.74 10.8036 15.412C11.2936 15.7349 11.6857 16.0019 12.0769 16.2683C12.5042 16.5593 12.9303 16.8495 13.4816 17.2109C13.6221 17.303 13.7562 17.3986 13.8869 17.4917C14.3841 17.8462 14.8307 18.1646 15.3826 18.1138C15.7032 18.0843 16.0345 17.7828 16.2027 16.8836C16.6002 14.7584 17.3816 10.1537 17.5622 8.25619C17.578 8.08994 17.5581 7.87719 17.5422 7.78379C17.5262 7.69039 17.4928 7.55732 17.3714 7.45881C17.2276 7.34215 17.0056 7.31755 16.9064 7.3193C16.455 7.32725 15.7626 7.56803 12.43 8.95414Z" fill="#667085"/>
</g>
<defs>
<clipPath id="clip0_47_1644">
<rect width="24" height="24" fill="white" transform="translate(0 0.0952148)"/>
</clipPath>
</defs>
</svg>
