<svg width="24" height="25" viewBox="0 0 24 25" fill="none" xmlns="http://www.w3.org/2000/svg">
<g clip-path="url(#clip0_47_1645)">
<path d="M12 2.25615C15.2063 2.25615 15.5859 2.27021 16.8469 2.32646C18.0188 2.37803 18.6516 2.5749 19.0734 2.73897C19.6313 2.95459 20.0344 3.21709 20.4516 3.63428C20.8734 4.05615 21.1313 4.45459 21.3469 5.0124C21.5109 5.43428 21.7078 6.07178 21.7594 7.23896C21.8156 8.50459 21.8297 8.88428 21.8297 12.0858C21.8297 15.2921 21.8156 15.6718 21.7594 16.9327C21.7078 18.1046 21.5109 18.7374 21.3469 19.1593C21.1313 19.7171 20.8687 20.1202 20.4516 20.5374C20.0297 20.9593 19.6313 21.2171 19.0734 21.4327C18.6516 21.5968 18.0141 21.7937 16.8469 21.8452C15.5813 21.9015 15.2016 21.9155 12 21.9155C8.79375 21.9155 8.41406 21.9015 7.15313 21.8452C5.98125 21.7937 5.34844 21.5968 4.92656 21.4327C4.36875 21.2171 3.96563 20.9546 3.54844 20.5374C3.12656 20.1155 2.86875 19.7171 2.65313 19.1593C2.48906 18.7374 2.29219 18.0999 2.24063 16.9327C2.18438 15.6671 2.17031 15.2874 2.17031 12.0858C2.17031 8.87959 2.18438 8.4999 2.24063 7.23896C2.29219 6.06709 2.48906 5.43428 2.65313 5.0124C2.86875 4.45459 3.13125 4.05146 3.54844 3.63428C3.97031 3.2124 4.36875 2.95459 4.92656 2.73897C5.34844 2.5749 5.98594 2.37803 7.15313 2.32646C8.41406 2.27021 8.79375 2.25615 12 2.25615ZM12 0.0952148C8.74219 0.0952148 8.33438 0.109277 7.05469 0.165527C5.77969 0.221777 4.90313 0.428027 4.14375 0.72334C3.35156 1.03271 2.68125 1.44053 2.01563 2.11084C1.34531 2.77646 0.9375 3.44678 0.628125 4.23428C0.332812 4.99834 0.126563 5.87021 0.0703125 7.14521C0.0140625 8.42959 0 8.8374 0 12.0952C0 15.353 0.0140625 15.7608 0.0703125 17.0405C0.126563 18.3155 0.332812 19.1921 0.628125 19.9515C0.9375 20.7437 1.34531 21.414 2.01563 22.0796C2.68125 22.7452 3.35156 23.1577 4.13906 23.4624C4.90313 23.7577 5.775 23.964 7.05 24.0202C8.32969 24.0765 8.7375 24.0905 11.9953 24.0905C15.2531 24.0905 15.6609 24.0765 16.9406 24.0202C18.2156 23.964 19.0922 23.7577 19.8516 23.4624C20.6391 23.1577 21.3094 22.7452 21.975 22.0796C22.6406 21.414 23.0531 20.7437 23.3578 19.9562C23.6531 19.1921 23.8594 18.3202 23.9156 17.0452C23.9719 15.7655 23.9859 15.3577 23.9859 12.0999C23.9859 8.84209 23.9719 8.43428 23.9156 7.15459C23.8594 5.87959 23.6531 5.00303 23.3578 4.24365C23.0625 3.44678 22.6547 2.77646 21.9844 2.11084C21.3188 1.44521 20.6484 1.03271 19.8609 0.728027C19.0969 0.432715 18.225 0.226465 16.95 0.170215C15.6656 0.109277 15.2578 0.0952148 12 0.0952148Z" fill="#667085"/>
<path d="M12 5.93115C8.59688 5.93115 5.83594 8.69209 5.83594 12.0952C5.83594 15.4983 8.59688 18.2593 12 18.2593C15.4031 18.2593 18.1641 15.4983 18.1641 12.0952C18.1641 8.69209 15.4031 5.93115 12 5.93115ZM12 16.0937C9.79219 16.0937 8.00156 14.303 8.00156 12.0952C8.00156 9.8874 9.79219 8.09678 12 8.09678C14.2078 8.09678 15.9984 9.8874 15.9984 12.0952C15.9984 14.303 14.2078 16.0937 12 16.0937Z" fill="#667085"/>
<path d="M19.8469 5.68711C19.8469 6.48399 19.2 7.12618 18.4078 7.12618C17.6109 7.12618 16.9688 6.4793 16.9688 5.68711C16.9688 4.89024 17.6156 4.24805 18.4078 4.24805C19.2 4.24805 19.8469 4.89492 19.8469 5.68711Z" fill="#667085"/>
</g>
<defs>
<clipPath id="clip0_47_1645">
<rect width="24" height="24" fill="white" transform="translate(0 0.0952148)"/>
</clipPath>
</defs>
</svg>
