<svg width="24" height="25" viewBox="0 0 24 25" fill="none" xmlns="http://www.w3.org/2000/svg">
<g clip-path="url(#clip0_47_1646)">
<path d="M24 12.0952C24 5.46779 18.6274 0.0952148 12 0.0952148C5.37258 0.0952148 0 5.46779 0 12.0952C0 18.0847 4.3882 23.0492 10.125 23.9494V15.564H7.07812V12.0952H10.125V9.45147C10.125 6.44397 11.9166 4.78271 14.6576 4.78271C15.9701 4.78271 17.3438 5.01709 17.3438 5.01709V7.97021H15.8306C14.34 7.97021 13.875 8.89529 13.875 9.84521V12.0952H17.2031L16.6711 15.564H13.875V23.9494C19.6118 23.0492 24 18.0847 24 12.0952Z" fill="#667085"/>
</g>
<defs>
<clipPath id="clip0_47_1646">
<rect width="24" height="24" fill="white" transform="translate(0 0.0952148)"/>
</clipPath>
</defs>
</svg>
