<svg width="20" height="20" viewBox="0 0 20 20" fill="none" xmlns="http://www.w3.org/2000/svg">
<g clip-path="url(#clip0_47_1461)">
<path d="M11.708 5C12.522 5.1588 13.27 5.55688 13.8564 6.14328C14.4428 6.72968 14.8409 7.47772 14.9997 8.29166M11.708 1.66666C13.3991 1.85453 14.976 2.61181 16.1799 3.81417C17.3838 5.01653 18.143 6.59251 18.333 8.28333M8.52216 11.5526C7.52084 10.5512 6.73019 9.41904 6.15019 8.21102C6.1003 8.10711 6.07536 8.05516 6.05619 7.98942C5.98809 7.75579 6.03701 7.46891 6.17868 7.27105C6.21855 7.21537 6.26618 7.16774 6.36144 7.07248C6.65278 6.78114 6.79845 6.63547 6.89369 6.48899C7.25285 5.93658 7.25285 5.22443 6.89369 4.67202C6.79845 4.52554 6.65278 4.37987 6.36144 4.08853L6.19905 3.92614C5.75618 3.48327 5.53475 3.26184 5.29693 3.14155C4.82396 2.90233 4.26541 2.90233 3.79244 3.14155C3.55462 3.26184 3.33319 3.48327 2.89032 3.92614L2.75896 4.05751C2.3176 4.49886 2.09693 4.71953 1.92839 5.01956C1.74137 5.35248 1.6069 5.86956 1.60804 6.25141C1.60906 6.59553 1.67582 6.83072 1.80932 7.30109C2.5268 9.82892 3.88053 12.2142 5.87051 14.2042C7.86049 16.1942 10.2458 17.5479 12.7736 18.2654C13.244 18.3989 13.4792 18.4657 13.8233 18.4667C14.2052 18.4678 14.7222 18.3333 15.0552 18.1463C15.3552 17.9778 15.5759 17.7571 16.0172 17.3158L16.1486 17.1844C16.5914 16.7415 16.8129 16.5201 16.9332 16.2823C17.1724 15.8093 17.1724 15.2508 16.9332 14.7778C16.8129 14.54 16.5914 14.3185 16.1486 13.8757L15.9862 13.7133C15.6948 13.4219 15.5492 13.2763 15.4027 13.181C14.8503 12.8219 14.1381 12.8219 13.5857 13.181C13.4392 13.2763 13.2936 13.4219 13.0022 13.7133C12.907 13.8085 12.8593 13.8562 12.8037 13.896C12.6058 14.0377 12.3189 14.0866 12.0853 14.0185C12.0196 13.9994 11.9676 13.9744 11.8637 13.9245C10.6557 13.3445 9.52347 12.5539 8.52216 11.5526Z" stroke="white" stroke-opacity="0.8" stroke-width="2" stroke-linecap="round" stroke-linejoin="round"/>
</g>
<defs>
<clipPath id="clip0_47_1461">
<rect width="20" height="20" fill="white"/>
</clipPath>
</defs>
</svg>
